<svg
  xmlns="http://www.w3.org/2000/svg"
  version="1.1"
  width="710.3333740234375"
  height="386.79999999999995"
  viewBox="0 0 710.3333740234375 386.79999999999995"
  style="font-family: Lato, &quot;Helvetica Neue&quot;, Helvetica, Arial, sans-serif; font-size: 16px; background-color: white; text-rendering: optimizelegibility; -webkit-font-smoothing: antialiased;">
  <g class="LineChart">
    <defs>
      <clipPath id="boundsClip-1">
        <rect x="54.352000000000004" y="0" width="690.3333740234375" height="703.5999999999999"></rect>
      </clipPath>
    </defs>
    <g class="AxisBoxView">
      <g class="HorizontalAxis">
        <line x1="64.4" y1="354.4" x2="64.4" y2="357.4" stroke="#666"></line>
        <line x1="171.3" y1="354.4" x2="171.3" y2="357.4" stroke="#666"></line>
        <line x1="283.9" y1="354.4" x2="283.9" y2="357.4" stroke="#666"></line>
        <line x1="396.5" y1="354.4" x2="396.5" y2="357.4" stroke="#666"></line>
        <line x1="588" y1="354.4" x2="588" y2="357.4" stroke="#666"></line>
        <text x="64.4" y="373.79999999999995" fill="#666" text-anchor="middle" font-size="14.4">Jan 22, 2020</text>
        <text x="171.3" y="373.79999999999995" fill="#666" text-anchor="middle" font-size="14.4">Feb 10, 2020</text>
        <text x="283.9" y="373.79999999999995" fill="#666" text-anchor="middle" font-size="14.4">Mar 1, 2020</text>
        <text x="396.5" y="373.79999999999995" fill="#666" text-anchor="middle" font-size="14.4">Mar 21, 2020</text>
        <text x="588" y="373.79999999999995" fill="#666" text-anchor="middle" font-size="14.4">Apr 24, 2020</text>
      </g>
      <g class="VerticalAxis">
        <text x="59.35" y="354.4" fill="#666" dominant-baseline="middle" text-anchor="end" font-size="14.4">0</text>
        <text x="59.35" y="287.9" fill="#666" dominant-baseline="middle" text-anchor="end" font-size="14.4">10,000</text>
        <text x="59.35" y="221.3" fill="#666" dominant-baseline="middle" text-anchor="end" font-size="14.4">20,000</text>
        <text x="59.35" y="154.8" fill="#666" dominant-baseline="middle" text-anchor="end" font-size="14.4">30,000</text>
        <text x="59.35" y="88.3" fill="#666" dominant-baseline="middle" text-anchor="end" font-size="14.4">40,000</text>
        <text x="15" y="14" class="clickable" style="font-size: 12px; text-transform: uppercase; cursor: pointer;">Confirmed Cases</text>
      </g>
      <g class="AxisGridLines">
        <line x1="64.35" y1="354.4" x2="587.97" y2="354.4" stroke="#ccc"></line>
        <line x1="64.35" y1="287.9" x2="587.97" y2="287.9" stroke="#ddd" stroke-dasharray="3,2"></line>
        <line x1="64.35" y1="221.3" x2="587.97" y2="221.3" stroke="#ddd" stroke-dasharray="3,2"></line>
        <line x1="64.35" y1="154.8" x2="587.97" y2="154.8" stroke="#ddd" stroke-dasharray="3,2"></line>
        <line x1="64.35" y1="88.3" x2="587.97" y2="88.3" stroke="#ddd" stroke-dasharray="3,2"></line>
      </g>
    </g>
    <g clip-path="url(#boundsClip-1)">
      <g class="HeightedLegend" style="cursor: pointer;">
        <g class="legendMark">
          <rect x="587.9733740234375" y="22" width="107.36" height="12" fill="#fff" opacity="0"></rect>
          <text font-size="12.00" x="592.0" y="31.6" fill="#34983f">
            <tspan x="591.9733740234375" y="31.6">United States</tspan>
          </text>
        </g>
        <g class="legendMark">
          <rect x="587.9733740234375" y="178.4" width="57.08" height="12" fill="#fff" opacity="0"></rect>
          <text font-size="12.00" x="592.0" y="188.0" fill="#ca2628">
            <tspan x="591.9733740234375" y="188">Italy</tspan>
          </text>
        </g>
        <g class="legendMark">
          <rect x="587.9733740234375" y="317.6" width="66.44" height="12" fill="#fff" opacity="0"></rect>
          <text font-size="12.00" x="592.0" y="327.2" fill="#3360a9">
            <tspan x="591.9733740234375" y="327.20000000000005">China</tspan>
          </text>
        </g>
      </g>
      <g class="Lines">
        <rect x="64" y="22" width="524" height="332" fill="rgba(255,255,255,0)" opacity="0"></rect>
        <g class="key-China_0">
          <path
            stroke="#3360a9"
            stroke-linecap="round"
            d="M64 354L70 354L76 354L81 354L87 354L93 354L98 354L104 354L109 353L115 353L121 353L126 352L132 352L138 352L143 351L149 351L154 350L160 350L166 349L171 348L177 348L183 347L188 345L194 345L200 344L205 343L211 343L216 342L222 341L228 340L233 340L239 339L245 338L250 337L256 337L261 336L267 336L273 336L278 336L284 335L290 335L295 335L301 335L307 334L312 334L318 334L323 334L329 334L335 334L340 333L346 333L352 333L357 333L363 333L368 333L374 333L380 333L385 333L391 333L397 333L402 333L408 333L413 333L419 333L425 333L430 333L436 333L442 332L447 332L453 332L459 332L464 332L470 332L475 332L481 332L487 332L492 332L498 332L504 332L509 332L515 332L520 332L526 332L532 332L537 332L543 332L549 324L554 324L560 324L566 324L571 324L577 324L582 324L588 324"
            fill="none"
            stroke-width="1.5"></path>
          <g fill="#3360a9">
            <circle cx="64" cy="354" r="5"></circle>
            <circle cx="171" cy="348" r="5"></circle>
            <circle cx="284" cy="335" r="5"></circle>
            <circle cx="397" cy="333" r="5"></circle>
            <circle cx="588" cy="324" r="5"></circle>
          </g>
        </g>
        <g class="key-Italy_0">
          <path
            stroke="#ca2628"
            stroke-linecap="round"
            d="M64 354L70 354L76 354L81 354L87 354L93 354L98 354L104 354L109 354L115 354L121 354L126 354L132 354L138 354L143 354L149 354L154 354L160 354L166 354L171 354L177 354L183 354L188 354L194 354L200 354L205 354L211 354L216 354L222 354L228 354L233 354L239 354L245 354L250 354L256 354L261 354L267 354L273 354L278 354L284 354L290 354L295 354L301 354L307 354L312 353L318 353L323 353L329 352L335 351L340 350L346 349L352 348L357 346L363 345L368 342L374 340L380 338L385 335L391 332L397 328L402 322L408 318L413 314L419 309L425 305L430 300L436 294L442 288L447 283L453 277L459 272L464 267L470 262L475 257L481 252L487 249L492 245L498 240L504 237L509 233L515 229L520 225L526 222L532 218L537 214L543 210L549 207L554 203L560 200L566 197L571 194L577 190L582 188L588 184"
            fill="none"
            stroke-width="1.5"></path>
          <g fill="#ca2628">
            <circle cx="64" cy="354" r="5"></circle>
            <circle cx="171" cy="354" r="5"></circle>
            <circle cx="284" cy="354" r="5"></circle>
            <circle cx="397" cy="328" r="5"></circle>
            <circle cx="588" cy="184" r="5"></circle>
          </g>
        </g>
        <g class="key-United-States_0">
          <path
            stroke="#34983f"
            stroke-linecap="round"
            d="M64 354L70 354L76 354L81 354L87 354L93 354L98 354L104 354L109 354L115 354L121 354L126 354L132 354L138 354L143 354L149 354L154 354L160 354L166 354L171 354L177 354L183 354L188 354L194 354L200 354L205 354L211 354L216 354L222 354L228 354L233 354L239 354L245 354L250 354L256 354L261 354L267 354L273 354L278 354L284 354L290 354L295 354L301 354L307 354L312 354L318 354L323 354L329 354L335 354L340 354L346 354L352 354L357 354L363 354L368 354L374 354L380 354L385 353L391 353L397 353L402 352L408 351L413 351L419 349L425 347L430 346L436 343L442 340L447 338L453 333L459 327L464 320L470 314L475 307L481 298L487 290L492 281L498 269L504 256L509 243L515 230L520 217L526 207L532 197L537 181L543 148L549 133L554 108L560 96L566 84L571 71L577 55L582 43L588 22"
            fill="none"
            stroke-width="1.5"></path>
          <g fill="#34983f">
            <circle cx="64" cy="354" r="5"></circle>
            <circle cx="171" cy="354" r="5"></circle>
            <circle cx="284" cy="354" r="5"></circle>
            <circle cx="397" cy="353" r="5"></circle>
            <circle cx="588" cy="22" r="5"></circle>
          </g>
        </g>
      </g>
    </g>
  </g>
</svg>
